<svg width="35" height="36" viewBox="0 0 35 36" fill="none" xmlns="http://www.w3.org/2000/svg">
<path d="M15.9156 19.5826C15.6369 19.3044 15.3047 19.0855 14.9391 18.9392L3.37456 14.3017C3.23648 14.2463 3.11866 14.1499 3.0369 14.0256C2.95514 13.9013 2.91336 13.755 2.91717 13.6063C2.92098 13.4575 2.9702 13.3135 3.05821 13.1936C3.14623 13.0736 3.26883 12.9835 3.40956 12.9352L31.1179 3.45604C31.2471 3.40937 31.387 3.40046 31.5211 3.43036C31.6551 3.46026 31.778 3.52774 31.8751 3.62488C31.9722 3.72203 32.0397 3.84484 32.0696 3.97893C32.0995 4.11303 32.0906 4.25287 32.0439 4.38208L22.5648 32.0904C22.5165 32.2312 22.4264 32.3538 22.3064 32.4418C22.1864 32.5298 22.0424 32.579 21.8937 32.5828C21.745 32.5866 21.5986 32.5448 21.4743 32.4631C21.35 32.3813 21.2537 32.2635 21.1983 32.1254L16.5608 20.5579C16.4138 20.1926 16.1943 19.8608 15.9156 19.5826ZM15.9156 19.5826L31.8704 3.63104" stroke="black" stroke-width="2" stroke-linecap="round" stroke-linejoin="round"/>
</svg>
