<svg width="32" height="31" viewBox="0 0 32 31" fill="none" xmlns="http://www.w3.org/2000/svg">
<path d="M16 16.7917C16.7134 16.7917 17.2917 16.2134 17.2917 15.5C17.2917 14.7866 16.7134 14.2083 16 14.2083C15.2866 14.2083 14.7083 14.7866 14.7083 15.5C14.7083 16.2134 15.2866 16.7917 16 16.7917Z" stroke="black" stroke-width="2" stroke-linecap="round" stroke-linejoin="round"/>
<path d="M26.5917 26.0917C29.2267 23.4696 26.6175 16.585 20.7792 10.7208C14.915 4.88251 8.03042 2.27334 5.40834 4.90834C2.77334 7.53042 5.38251 14.415 11.2208 20.2792C17.085 26.1175 23.9696 28.7267 26.5917 26.0917Z" stroke="black" stroke-width="2" stroke-linecap="round" stroke-linejoin="round"/>
<path d="M20.7792 20.2792C26.6175 14.415 29.2267 7.53042 26.5917 4.90834C23.9696 2.27334 17.085 4.88251 11.2208 10.7208C5.38251 16.585 2.77334 23.4696 5.40834 26.0917C8.03042 28.7267 14.915 26.1175 20.7792 20.2792Z" stroke="black" stroke-width="2" stroke-linecap="round" stroke-linejoin="round"/>
</svg>
